# xmcd
#
# Track frame offsets: 
#        150
#        22000
#        41245
#        58670
#        78185
#        96806
#        115796
#        138980
#        158453
#        181432
#        201814
#        226289
#        248346
#        267405
#
# Disc length: 3689 seconds
#
# Revision: 0
# Processed by: cddbd v1.5.2PL0 Copyright (c) Steve Scherf et al.
# Submitted via: ExactAudioCopy v0.99pb4
#
DISCID=b10e670e
DTITLE=Kentucky Thunder - 'Bout Damn Time
DYEAR=2010
DGENRE=Blues
TTITLE0=Paper Thin [J.Hiatt]
TTITLE1=One Thing I Know [J. Mosser, J. Hall]
TTITLE2=I Believe [E. Britt, B. Britt, T. Kerr]
TTITLE3=Love Is A Gift [V. Carrico, B. Hall]
TTITLE4=I Don't Care Who Knows [W. Dixon]
TTITLE5=I Am On Your Side [J. Mosser, J. Hall]
TTITLE6=What About Me [E. Britt, S. Lawrence]
TTITLE7=Better Fantasy [V. Carrico, C. Eddy]
TTITLE8=Who's Laughin At Who [S. Lawrence]
TTITLE9=Stumblin Over The Pieces [V. Carrico, D. McVicker]
TTITLE10=Run [S. Lawrence]
TTITLE11=Baton Rouge [T. Britt]
TTITLE12=I Can't Win [Johnson, Richardson, Knight]
TTITLE13=My Old Kentucky Home [S.C. Foster]
EXTD=
EXTT0=
EXTT1=
EXTT2=
EXTT3=
EXTT4=
EXTT5=
EXTT6=
EXTT7=
EXTT8=
EXTT9=
EXTT10=
EXTT11=
EXTT12=
EXTT13=
PLAYORDER=
